<svg width="222" height="222" viewBox="0 0 222 222" fill="none" xmlns="http://www.w3.org/2000/svg">
<path d="M215 115.5C215 172.661 168.661 219 111.5 219C54.3385 219 8 172.661 8 115.5C8 58.3385 54.3385 12 111.5 12C168.661 12 215 58.3385 215 115.5Z" fill="#EF4444"/>
<path d="M110.013 13.0503C132.215 19.1084 149.854 77.8256 110.013 96C65.3743 73.1655 91.8321 16.3123 110.013 13.0503Z" fill="#30B644"/>
<path d="M105.893 12.9836C127.795 5.91078 174.466 45.4813 150.936 82.5229C101.114 87.8119 92.4226 25.6692 105.893 12.9836Z" fill="#30B644"/>
<path d="M109.667 11.7972C125.281 -5.16756 185.297 6.27276 182.932 50.1422C142.129 79.3264 104.144 29.4909 109.667 11.7972Z" fill="#30B644"/>
<path d="M110.957 13.4102C126.331 30.5945 109.408 89.5238 66.1207 83.084C40.9687 39.5844 93.9223 6.24494 110.957 13.4102Z" fill="#30B644"/>
<path d="M111.32 12.195C114.945 35.0049 68.8787 75.2832 36 46.2905C38.386 -3.95012 100.885 -3.10397 111.32 12.195Z" fill="#30B644"/>
</svg>
